<svg width="32" height="32" viewBox="0 0 32 32" fill="none" xmlns="http://www.w3.org/2000/svg">
<path d="M19.705 13.1538V7.61538C19.705 6.39131 19.2187 5.21737 18.3532 4.35181C17.4876 3.48626 16.3137 3 15.0896 3C13.8655 3 12.6916 3.48626 11.826 4.35181C10.9605 5.21737 10.4742 6.39131 10.4742 7.61538V13.1538M24.4508 10.7009L26.0053 25.4702C26.0914 26.2886 25.4514 27 24.6281 27H5.55114C5.35693 27.0002 5.16485 26.9596 4.98738 26.8807C4.80991 26.8018 4.65101 26.6865 4.52101 26.5422C4.39101 26.398 4.29282 26.228 4.23281 26.0433C4.17279 25.8586 4.15231 25.6633 4.17268 25.4702L5.72837 10.7009C5.76425 10.3607 5.92483 10.0458 6.17914 9.81693C6.43345 9.58808 6.76348 9.46148 7.1056 9.46154H23.0736C23.7825 9.46154 24.377 9.99692 24.4508 10.7009ZM10.9358 13.1538C10.9358 13.2763 10.8871 13.3936 10.8006 13.4802C10.714 13.5668 10.5966 13.6154 10.4742 13.6154C10.3518 13.6154 10.2344 13.5668 10.1479 13.4802C10.0613 13.3936 10.0127 13.2763 10.0127 13.1538C10.0127 13.0314 10.0613 12.914 10.1479 12.8275C10.2344 12.7409 10.3518 12.6923 10.4742 12.6923C10.5966 12.6923 10.714 12.7409 10.8006 12.8275C10.8871 12.914 10.9358 13.0314 10.9358 13.1538ZM20.1665 13.1538C20.1665 13.2763 20.1179 13.3936 20.0313 13.4802C19.9448 13.5668 19.8274 13.6154 19.705 13.6154C19.5826 13.6154 19.4652 13.5668 19.3786 13.4802C19.2921 13.3936 19.2434 13.2763 19.2434 13.1538C19.2434 13.0314 19.2921 12.914 19.3786 12.8275C19.4652 12.7409 19.5826 12.6923 19.705 12.6923C19.8274 12.6923 19.9448 12.7409 20.0313 12.8275C20.1179 12.914 20.1665 13.0314 20.1665 13.1538Z" stroke="#2D3040" stroke-width="1.5" stroke-linecap="round" stroke-linejoin="round"/>
</svg>
