<svg width="24" height="26" viewBox="0 0 24 26" fill="none" xmlns="http://www.w3.org/2000/svg">
<path d="M16.705 11.1538V5.61538C16.705 4.39131 16.2187 3.21737 15.3532 2.35181C14.4876 1.48626 13.3137 1 12.0896 1C10.8655 1 9.69158 1.48626 8.82603 2.35181C7.96048 3.21737 7.47422 4.39131 7.47422 5.61538V11.1538M21.4508 8.70092L23.0053 23.4702C23.0914 24.2886 22.4514 25 21.6281 25H2.55114C2.35693 25.0002 2.16485 24.9596 1.98738 24.8807C1.80991 24.8018 1.65101 24.6865 1.52101 24.5422C1.39101 24.398 1.29282 24.228 1.23281 24.0433C1.17279 23.8586 1.15231 23.6633 1.17268 23.4702L2.72837 8.70092C2.76425 8.36069 2.92483 8.04579 3.17914 7.81693C3.43345 7.58808 3.76348 7.46148 4.1056 7.46154H20.0736C20.7825 7.46154 21.377 7.99692 21.4508 8.70092ZM7.93575 11.1538C7.93575 11.2763 7.88713 11.3936 7.80057 11.4802C7.71402 11.5668 7.59662 11.6154 7.47422 11.6154C7.35181 11.6154 7.23441 11.5668 7.14786 11.4802C7.0613 11.3936 7.01268 11.2763 7.01268 11.1538C7.01268 11.0314 7.0613 10.914 7.14786 10.8275C7.23441 10.7409 7.35181 10.6923 7.47422 10.6923C7.59662 10.6923 7.71402 10.7409 7.80057 10.8275C7.88713 10.914 7.93575 11.0314 7.93575 11.1538ZM17.1665 11.1538C17.1665 11.2763 17.1179 11.3936 17.0313 11.4802C16.9448 11.5668 16.8274 11.6154 16.705 11.6154C16.5826 11.6154 16.4652 11.5668 16.3786 11.4802C16.2921 11.3936 16.2434 11.2763 16.2434 11.1538C16.2434 11.0314 16.2921 10.914 16.3786 10.8275C16.4652 10.7409 16.5826 10.6923 16.705 10.6923C16.8274 10.6923 16.9448 10.7409 17.0313 10.8275C17.1179 10.914 17.1665 11.0314 17.1665 11.1538Z" stroke="#2D3040" stroke-width="1.5" stroke-linecap="round" stroke-linejoin="round"/>
</svg>
