<svg width="36" height="36" viewBox="0 0 36 36" fill="none" xmlns="http://www.w3.org/2000/svg">
<path d="M17.1397 5.94967L17.1397 5.94967C17.3362 6.15786 17.4895 6.40298 17.5933 6.66951C17.6971 6.93597 17.7499 7.22022 17.7499 7.50618C17.7499 7.5062 17.7499 7.50622 17.7499 7.50624V9.31209C17.7528 9.59623 17.7031 9.87921 17.6025 10.145C17.5012 10.4124 17.3499 10.6588 17.1548 10.8682C16.9596 11.0778 16.7243 11.2464 16.4611 11.3612C16.1996 11.4753 15.9175 11.5332 15.6319 11.5299H14.5604C14.0462 11.5299 13.8673 11.5564 13.7638 11.6305C13.7259 11.6576 13.5167 11.8243 13.5167 12.7056V14.2087H14.3452C14.9235 14.2087 15.4664 14.4559 15.8579 14.8762C16.2478 15.2947 16.4584 15.8517 16.4584 16.4223V18.2325C16.4584 18.803 16.2478 19.36 15.8579 19.7785C15.4664 20.1989 14.9235 20.446 14.3452 20.446H13.5167L13.5167 30.0359C13.5167 30.0361 13.5167 30.0363 13.5167 30.0365V30.0371H12.7667C12.7671 30.2828 12.6801 30.5193 12.5234 30.6983C12.3666 30.8773 12.1521 30.9853 11.9237 31L17.1397 5.94967ZM17.1397 5.94967C16.9432 5.74137 16.707 5.57397 16.4436 5.46005C16.1836 5.34767 15.9038 5.29028 15.6204 5.29257M17.1397 5.94967L15.6204 5.29257M15.6204 5.29257L13.0925 5.25435C12.2374 5.22042 11.3869 5.38548 10.6001 5.73634C9.81042 6.08849 9.10575 6.61843 8.53259 7.28593C7.95956 7.95326 7.53105 8.74274 7.27354 9.59863C7.02019 10.4407 6.93754 11.3298 7.03024 12.2071V14.2087H6.36321C5.78487 14.2087 5.24199 14.4559 4.85047 14.8762C4.46062 15.2947 4.25 15.8517 4.25 16.4223V18.2325C4.25 18.803 4.46062 19.36 4.85047 19.7785C5.24199 20.1989 5.78487 20.446 6.36321 20.446H7.03024L15.6204 5.29257Z" stroke="white" stroke-width="1.5" stroke-linecap="round" stroke-linejoin="round"/>
</svg>
