<svg width="36" height="36" viewBox="0 0 36 36" fill="none" xmlns="http://www.w3.org/2000/svg">
<path d="M16.5964 2.37923C15.1794 2.22891 13.7553 2.15576 12.3303 2.16009C7.60638 2.16009 4.67058 5.16893 4.67058 10.0123V13.3007H0.702343C0.51607 13.3007 0.337426 13.3747 0.205711 13.5064C0.0739961 13.6381 0 13.8167 0 14.003V19.411C0 19.5973 0.0739961 19.776 0.205711 19.9077C0.337426 20.0394 0.51607 20.1134 0.702343 20.1134H4.67058V30.9576C4.67058 31.1438 4.74458 31.3225 4.87629 31.4542C5.00801 31.5859 5.18665 31.6599 5.37293 31.6599H10.9608C11.147 31.6599 11.3257 31.5859 11.4574 31.4542C11.5891 31.3225 11.6631 31.1438 11.6631 30.9576V20.1134H15.6187C15.7892 20.1135 15.9539 20.0515 16.0821 19.9391C16.2103 19.8267 16.2933 19.6714 16.3154 19.5024L17.0136 14.0943C17.0266 13.9952 17.0182 13.8944 16.9892 13.7988C16.9601 13.7031 16.9109 13.6148 16.845 13.5396C16.779 13.4645 16.6978 13.4043 16.6067 13.3631C16.5156 13.3219 16.4168 13.3006 16.3168 13.3007H11.6631V10.5489C11.6631 9.18634 11.937 8.61744 13.6409 8.61744H16.5051C16.6913 8.61744 16.87 8.54344 17.0017 8.41173C17.1334 8.28001 17.2074 8.10137 17.2074 7.91509V3.07595C17.2075 2.90543 17.1455 2.74071 17.0331 2.61251C16.9207 2.48431 16.7654 2.40139 16.5964 2.37923ZM15.8027 7.21135L13.6395 7.21275C10.6096 7.21275 10.2584 9.11751 10.2584 10.5489V14.0044C10.2584 14.1904 10.3322 14.3689 10.4636 14.5005C10.5951 14.6322 10.7733 14.7064 10.9594 14.7068H15.519L15.0006 18.7101H10.9608C10.7745 18.7101 10.5959 18.7841 10.4641 18.9158C10.3324 19.0475 10.2584 19.2262 10.2584 19.4125V30.2538H6.07527V19.4125C6.07527 19.2262 6.00127 19.0475 5.86956 18.9158C5.73784 18.7841 5.5592 18.7101 5.37293 18.7101H1.40609V14.7068H5.37293C5.5592 14.7068 5.73784 14.6328 5.86956 14.501C6.00127 14.3693 6.07527 14.1907 6.07527 14.0044V10.0123C6.07527 5.97522 8.41407 3.56478 12.3303 3.56478C13.7477 3.56478 15.0273 3.64204 15.8027 3.70946V7.21135Z" fill="white"/>
</svg>
