<svg width="36" height="36" viewBox="0 0 36 36" fill="none" xmlns="http://www.w3.org/2000/svg">
<path d="M18.2501 25.3334C19.6646 25.3334 21.0211 24.7715 22.0213 23.7713C23.0215 22.7711 23.5834 21.4146 23.5834 20.0001C23.5834 18.5856 23.0215 17.229 22.0213 16.2288C21.0211 15.2287 19.6646 14.6667 18.2501 14.6667C16.8356 14.6667 15.479 15.2287 14.4788 16.2288C13.4787 17.229 12.9167 18.5856 12.9167 20.0001C12.9167 21.4146 13.4787 22.7711 14.4788 23.7713C15.479 24.7715 16.8356 25.3334 18.2501 25.3334Z" stroke="white" stroke-width="1.5" stroke-linecap="round" stroke-linejoin="round"/>
<path d="M6.25 25.3333V14.6667C6.25 12.8986 6.95238 11.2029 8.20262 9.95262C9.45286 8.70238 11.1486 8 12.9167 8H23.5833C25.3514 8 27.0471 8.70238 28.2974 9.95262C29.5476 11.2029 30.25 12.8986 30.25 14.6667V25.3333C30.25 27.1014 29.5476 28.7971 28.2974 30.0474C27.0471 31.2976 25.3514 32 23.5833 32H12.9167C11.1486 32 9.45286 31.2976 8.20262 30.0474C6.95238 28.7971 6.25 27.1014 6.25 25.3333Z" stroke="white" stroke-width="1.5"/>
<path d="M25.5835 12.6793L25.596 12.6655" stroke="white" stroke-width="2" stroke-linecap="round" stroke-linejoin="round"/>
</svg>
