<svg width="24" height="24" viewBox="0 0 24 24" fill="none" xmlns="http://www.w3.org/2000/svg">
<path d="M16.4998 20.9126C17.7597 20.915 18.9774 20.4587 19.9254 19.6289C20.8734 18.7991 21.4869 17.6525 21.6513 16.4034L21.6514 16.4027L20.7816 15.0282L20.8225 14.9369L20.8224 14.9369C20.8223 14.9368 20.8222 14.9368 20.8221 14.9368L16.3937 12.9522L16.3937 12.9522L16.3922 12.9516C16.1763 12.859 15.9406 12.8218 15.7067 12.8433C15.473 12.8648 15.2484 12.9441 15.0531 13.0742M16.4998 20.9126L16.5 20.8126V20.9126C16.4999 20.9126 16.4999 20.9126 16.4998 20.9126ZM16.4998 20.9126C9.10408 20.9124 3.08756 14.8959 3.08751 7.50015M3.08751 7.50015C3.08512 6.2403 3.54143 5.02267 4.3712 4.07468C5.201 3.12666 6.34754 2.51314 7.59665 2.34872L7.5976 2.3486L7.5976 2.3486C7.90097 2.31164 8.20814 2.37407 8.47301 2.52652C8.73764 2.67883 8.94579 2.91278 9.06628 3.19332L11.0441 7.60918L11.0445 7.61001L11.0445 7.61002C11.1385 7.82515 11.1773 8.06031 11.1576 8.29425C11.1379 8.52819 11.0602 8.75352 10.9315 8.94987C10.9173 8.97162 10.9019 8.99252 10.8853 9.01246L10.885 9.01285L8.91912 11.351C8.91634 11.3591 8.9149 11.3676 8.9149 11.3761C8.9149 11.388 8.91762 11.3996 8.92285 11.4102L8.92299 11.4105C9.631 12.8598 11.1552 14.3732 12.6254 15.081C12.6359 15.0856 12.6474 15.0879 12.659 15.0875C12.6681 15.0871 12.677 15.0852 12.6854 15.0817L14.9897 13.1218C14.9898 13.1217 14.99 13.1216 14.9901 13.1214C15.0099 13.1042 15.031 13.0884 15.0531 13.0742M3.08751 7.50015C3.08751 7.50018 3.08751 7.50021 3.08751 7.50025L3.18751 7.50005H3.08751C3.08751 7.50009 3.08751 7.50012 3.08751 7.50015ZM15.0531 13.0742C15.0528 13.0743 15.0526 13.0745 15.0523 13.0747L15.1078 13.1579L15.0538 13.0737C15.0536 13.0739 15.0533 13.074 15.0531 13.0742ZM20.2832 16.1526L20.2832 16.1526L20.2849 16.1533C20.3018 16.1605 20.316 16.1728 20.3255 16.1885C20.3346 16.2036 20.339 16.2211 20.338 16.2387C20.214 17.1671 19.7566 18.0188 19.051 18.6349C18.3447 19.2518 17.438 19.5904 16.5003 19.5876H16.5C9.83524 19.5876 4.41251 14.1648 4.41251 7.50005L4.41251 7.49975C4.40965 6.56215 4.74815 5.65557 5.3648 4.94929C5.98001 4.24466 6.83011 3.78746 7.75699 3.66255H7.77077C7.78814 3.66303 7.80497 3.66866 7.81913 3.67874C7.8335 3.68897 7.84444 3.7033 7.85052 3.71985L7.8503 3.71993L7.85308 3.72616L9.82746 8.14553L9.82745 8.14553L9.82789 8.14649C9.83316 8.15795 9.83588 8.17041 9.83588 8.18302C9.83588 8.19196 9.83452 8.20081 9.83185 8.20929L7.86852 10.5455C7.85094 10.5656 7.83487 10.5869 7.82042 10.6093C7.68715 10.8128 7.60867 11.0472 7.59258 11.2899C7.5765 11.5326 7.62335 11.7753 7.72861 11.9946L7.72888 11.9951C8.57041 13.7209 10.3025 15.4367 12.0437 16.2779L12.0443 16.2782C12.2649 16.3829 12.5088 16.4286 12.7523 16.4109C12.9958 16.3932 13.2305 16.3128 13.4336 16.1773L13.4346 16.1766C13.4543 16.1632 13.4748 16.1481 13.4947 16.1316L13.4954 16.1309L15.7994 14.1704C15.8074 14.1672 15.8159 14.1652 15.8246 14.1647C15.8354 14.164 15.8462 14.1656 15.8564 14.1692L20.2832 16.1526Z" fill="white" stroke="white" stroke-width="0.2"/>
</svg>
