<svg width="36" height="36" viewBox="0 0 36 36" fill="none" xmlns="http://www.w3.org/2000/svg">
<path d="M30 11.0092L30.71 11.2507C30.812 10.951 30.7148 10.6195 30.4671 10.4224C30.2194 10.2253 29.8746 10.2049 29.6054 10.3714L29.6053 10.3715L29.6049 10.3717L29.6014 10.3739L29.5848 10.384C29.5697 10.3932 29.5466 10.4071 29.5163 10.4251C29.4556 10.4612 29.3662 10.5135 29.2545 10.5766C29.0303 10.7031 28.7192 10.8713 28.3705 11.0386C28.0201 11.2068 27.6424 11.369 27.2835 11.4879C27.0436 11.5674 26.8319 11.6207 26.6546 11.6482C24.6408 9.98532 22.0648 9.89869 20.104 10.8998C18.2693 11.8365 16.9634 13.7338 17.1342 16.1352C13.5624 15.9999 10.0752 14.3673 7.76766 11.695C7.60747 11.5094 7.36674 11.4139 7.12293 11.4391C6.87912 11.4643 6.663 11.607 6.54412 11.8214C3.53726 17.243 6.10928 24.0405 11.627 26.5134C10.0117 27.4998 8.03045 27.9876 6.03337 27.8987C5.69536 27.8836 5.38911 28.0968 5.28581 28.419C5.18251 28.7412 5.30773 29.0926 5.59149 29.2769C16.3274 36.2498 30.0883 27.4926 28.3967 15.2615C29.1265 14.4645 29.6798 13.5211 30.0556 12.7709C30.2688 12.3453 30.4307 11.97 30.5398 11.6998C30.5945 11.5644 30.6361 11.4549 30.6645 11.3779C30.6787 11.3394 30.6896 11.309 30.6972 11.2875L30.7061 11.2621L30.7087 11.2547L30.7095 11.2522L30.7098 11.2514L30.7099 11.251C30.71 11.2509 30.71 11.2507 30 11.0092Z" stroke="white" stroke-width="1.5" stroke-linecap="round" stroke-linejoin="round"/>
</svg>
